<svg width="859" height="538" viewBox="0 0 859 538" fill="none" xmlns="http://www.w3.org/2000/svg">
<g id="undraw_programming_re_kg9v 1">
<g clip-path="url(#clip0_1_2)">
<rect width="859" height="538" fill="white" fill-opacity="0.38"/>
<path id="Vector" d="M664.241 52.0083C663.291 51.463 662.33 50.946 661.38 50.4195C633.924 35.2981 604.496 23.0137 573.703 13.82L566.563 98.639H521.3V1.43841C518.45 0.930733 515.579 0.451265 512.708 0V98.639H458.918C429.306 98.639 400.907 88.5092 379.968 70.4781C359.029 52.4469 347.266 27.9914 347.266 2.49147V2.49138C344.384 3.02726 341.523 3.60074 338.663 4.21183V98.6391H294.852L288.05 17.7592C256.406 28.21 226.364 41.9534 198.593 58.6833C198.113 58.9653 197.633 59.2568 197.163 59.5388C194.75 60.996 192.37 62.4814 190.001 63.9857V387.571H319.121L316.839 360.354L304.284 210.919H557.12L544.565 360.354L542.283 387.571H669.972V55.28C668.073 54.1707 666.162 53.0801 664.241 52.0083ZM338.663 186.241H302.21L295.474 106.047H338.663V186.241ZM512.708 186.241H451.483V184.652C451.483 183.888 451.308 183.132 450.969 182.426C450.629 181.721 450.131 181.08 449.503 180.54C448.876 180.001 448.131 179.573 447.311 179.282C446.491 178.99 445.612 178.841 444.725 178.842H418.109C417.223 178.842 416.345 178.992 415.526 179.284C414.708 179.576 413.964 180.004 413.337 180.543C412.711 181.083 412.214 181.723 411.875 182.428C411.536 183.133 411.362 183.889 411.362 184.652V186.241H347.266V106.047H512.708V186.241ZM521.3 186.241V106.047H565.941L559.205 186.241H521.3Z" fill="#3F3D56"/>
<path id="Vector_2" d="M0 408.292C9.48419 417.97 19.7424 427.064 30.6996 435.509L828.3 436.449C839.258 428.004 849.516 418.91 859 409.232L0 408.292Z" fill="#3F3D56"/>
<path id="Vector_3" d="M540.879 321.142V401.716C540.88 402.742 541.354 403.727 542.197 404.453C543.04 405.179 544.183 405.587 545.376 405.588H684.031C685.224 405.587 686.367 405.179 687.21 404.453C688.053 403.727 688.527 402.742 688.528 401.716V321.142C688.525 320.116 688.051 319.133 687.208 318.408C686.365 317.683 685.223 317.275 684.031 317.274H545.376C544.184 317.275 543.042 317.683 542.199 318.408C541.357 319.133 540.882 320.116 540.879 321.142Z" fill="#3F3D56"/>
<path id="Vector_4" d="M544.132 322.145V400.722C544.133 401.27 544.386 401.796 544.837 402.184C545.287 402.572 545.898 402.79 546.535 402.791H682.877C683.514 402.79 684.125 402.572 684.575 402.184C685.026 401.796 685.279 401.27 685.28 400.722V322.145C685.28 321.595 685.027 321.069 684.577 320.68C684.126 320.291 683.515 320.072 682.877 320.071H546.535C545.897 320.072 545.286 320.291 544.835 320.68C544.385 321.069 544.132 321.595 544.132 322.145Z" fill="#6C63FF"/>
<path id="Vector_5" d="M537.979 417.43C538.233 417.704 538.556 417.925 538.923 418.076C539.291 418.228 539.693 418.306 540.101 418.304H688.568C688.974 418.303 689.375 418.225 689.741 418.074C690.108 417.924 690.431 417.705 690.686 417.433C690.942 417.162 691.125 416.844 691.22 416.505C691.316 416.165 691.322 415.811 691.239 415.469L688.934 406.042C688.838 405.657 688.633 405.299 688.336 405.001C688.039 404.702 687.659 404.473 687.233 404.333C686.924 404.228 686.595 404.175 686.263 404.175H542.396C542.065 404.175 541.736 404.228 541.427 404.333C541 404.473 540.621 404.702 540.324 405.001C540.027 405.299 539.821 405.657 539.726 406.042L537.421 415.469C537.339 415.811 537.347 416.164 537.443 416.503C537.54 416.843 537.723 417.159 537.979 417.43Z" fill="#2F2E41"/>
<path id="Vector_6" d="M681.169 408.236H684.676C684.97 408.236 685.209 408.03 685.209 407.777V406.332C685.209 406.078 684.97 405.873 684.676 405.873H681.169C680.875 405.873 680.636 406.078 680.636 406.332V407.777C680.636 408.03 680.875 408.236 681.169 408.236Z" fill="#3F3D56"/>
<path id="Vector_7" d="M672.024 408.236H675.531C675.825 408.236 676.064 408.03 676.064 407.777V406.332C676.064 406.078 675.825 405.873 675.531 405.873H672.024C671.729 405.873 671.491 406.078 671.491 406.332V407.777C671.491 408.03 671.729 408.236 672.024 408.236Z" fill="#3F3D56"/>
<path id="Vector_8" d="M662.878 408.236H666.385C666.679 408.236 666.918 408.03 666.918 407.777V406.332C666.918 406.078 666.679 405.873 666.385 405.873H662.878C662.584 405.873 662.345 406.078 662.345 406.332V407.777C662.345 408.03 662.584 408.236 662.878 408.236Z" fill="#3F3D56"/>
<path id="Vector_9" d="M653.733 408.236H657.24C657.534 408.236 657.773 408.03 657.773 407.777V406.332C657.773 406.078 657.534 405.873 657.24 405.873H653.733C653.439 405.873 653.2 406.078 653.2 406.332V407.777C653.2 408.03 653.439 408.236 653.733 408.236Z" fill="#3F3D56"/>
<path id="Vector_10" d="M644.587 408.236H648.094C648.389 408.236 648.627 408.03 648.627 407.777V406.332C648.627 406.078 648.389 405.873 648.094 405.873H644.587C644.293 405.873 644.054 406.078 644.054 406.332V407.777C644.054 408.03 644.293 408.236 644.587 408.236Z" fill="#3F3D56"/>
<path id="Vector_11" d="M635.442 408.236H638.949C639.243 408.236 639.482 408.03 639.482 407.777V406.332C639.482 406.078 639.243 405.873 638.949 405.873H635.442C635.148 405.873 634.909 406.078 634.909 406.332V407.777C634.909 408.03 635.148 408.236 635.442 408.236Z" fill="#3F3D56"/>
<path id="Vector_12" d="M626.297 408.236H629.803C630.098 408.236 630.336 408.03 630.336 407.777V406.332C630.336 406.078 630.098 405.873 629.803 405.873H626.297C626.002 405.873 625.764 406.078 625.764 406.332V407.777C625.764 408.03 626.002 408.236 626.297 408.236Z" fill="#3F3D56"/>
<path id="Vector_13" d="M617.151 408.236H620.658C620.952 408.236 621.191 408.03 621.191 407.777V406.332C621.191 406.078 620.952 405.873 620.658 405.873H617.151C616.857 405.873 616.618 406.078 616.618 406.332V407.777C616.618 408.03 616.857 408.236 617.151 408.236Z" fill="#3F3D56"/>
<path id="Vector_14" d="M608.006 408.236H611.512C611.807 408.236 612.045 408.03 612.045 407.777V406.332C612.045 406.078 611.807 405.873 611.512 405.873H608.006C607.711 405.873 607.473 406.078 607.473 406.332V407.777C607.473 408.03 607.711 408.236 608.006 408.236Z" fill="#3F3D56"/>
<path id="Vector_15" d="M598.86 408.236H602.367C602.661 408.236 602.9 408.03 602.9 407.777V406.332C602.9 406.078 602.661 405.873 602.367 405.873H598.86C598.566 405.873 598.327 406.078 598.327 406.332V407.777C598.327 408.03 598.566 408.236 598.86 408.236Z" fill="#3F3D56"/>
<path id="Vector_16" d="M589.715 408.236H593.222C593.516 408.236 593.754 408.03 593.754 407.777V406.332C593.754 406.078 593.516 405.873 593.222 405.873H589.715C589.42 405.873 589.182 406.078 589.182 406.332V407.777C589.182 408.03 589.42 408.236 589.715 408.236Z" fill="#3F3D56"/>
<path id="Vector_17" d="M580.569 408.236H584.076C584.37 408.236 584.609 408.03 584.609 407.777V406.332C584.609 406.078 584.37 405.873 584.076 405.873H580.569C580.275 405.873 580.036 406.078 580.036 406.332V407.777C580.036 408.03 580.275 408.236 580.569 408.236Z" fill="#3F3D56"/>
<path id="Vector_18" d="M571.424 408.236H574.93C575.225 408.236 575.464 408.03 575.464 407.777V406.332C575.464 406.078 575.225 405.873 574.93 405.873H571.424C571.129 405.873 570.891 406.078 570.891 406.332V407.777C570.891 408.03 571.129 408.236 571.424 408.236Z" fill="#3F3D56"/>
<path id="Vector_19" d="M562.278 408.236H565.785C566.079 408.236 566.318 408.03 566.318 407.777V406.332C566.318 406.078 566.079 405.873 565.785 405.873H562.278C561.984 405.873 561.745 406.078 561.745 406.332V407.777C561.745 408.03 561.984 408.236 562.278 408.236Z" fill="#3F3D56"/>
<path id="Vector_20" d="M553.133 408.236H556.64C556.934 408.236 557.173 408.03 557.173 407.777V406.332C557.173 406.078 556.934 405.873 556.64 405.873H553.133C552.839 405.873 552.6 406.078 552.6 406.332V407.777C552.6 408.03 552.839 408.236 553.133 408.236Z" fill="#3F3D56"/>
<path id="Vector_21" d="M543.987 408.236H547.494C547.789 408.236 548.027 408.03 548.027 407.777V406.332C548.027 406.078 547.789 405.873 547.494 405.873H543.987C543.693 405.873 543.454 406.078 543.454 406.332V407.777C543.454 408.03 543.693 408.236 543.987 408.236Z" fill="#3F3D56"/>
<path id="Vector_22" d="M681.277 412.173H684.784C685.078 412.173 685.317 411.968 685.317 411.714V410.27C685.317 410.016 685.078 409.811 684.784 409.811H681.277C680.983 409.811 680.744 410.016 680.744 410.27V411.714C680.744 411.968 680.983 412.173 681.277 412.173Z" fill="#3F3D56"/>
<path id="Vector_23" d="M672.132 412.173H675.639C675.933 412.173 676.172 411.968 676.172 411.714V410.27C676.172 410.016 675.933 409.811 675.639 409.811H672.132C671.838 409.811 671.599 410.016 671.599 410.27V411.714C671.599 411.968 671.838 412.173 672.132 412.173Z" fill="#3F3D56"/>
<path id="Vector_24" d="M662.986 412.173H666.493C666.788 412.173 667.026 411.968 667.026 411.714V410.27C667.026 410.016 666.788 409.811 666.493 409.811H662.986C662.692 409.811 662.453 410.016 662.453 410.27V411.714C662.453 411.968 662.692 412.173 662.986 412.173Z" fill="#3F3D56"/>
<path id="Vector_25" d="M653.841 412.173H657.348C657.642 412.173 657.881 411.968 657.881 411.714V410.27C657.881 410.016 657.642 409.811 657.348 409.811H653.841C653.547 409.811 653.308 410.016 653.308 410.27V411.714C653.308 411.968 653.547 412.173 653.841 412.173Z" fill="#3F3D56"/>
<path id="Vector_26" d="M644.695 412.173H648.202C648.497 412.173 648.735 411.968 648.735 411.714V410.27C648.735 410.016 648.497 409.811 648.202 409.811H644.695C644.401 409.811 644.162 410.016 644.162 410.27V411.714C644.162 411.968 644.401 412.173 644.695 412.173Z" fill="#3F3D56"/>
<path id="Vector_27" d="M635.55 412.173H639.057C639.351 412.173 639.59 411.968 639.59 411.714V410.27C639.59 410.016 639.351 409.811 639.057 409.811H635.55C635.256 409.811 635.017 410.016 635.017 410.27V411.714C635.017 411.968 635.256 412.173 635.55 412.173Z" fill="#3F3D56"/>
<path id="Vector_28" d="M626.405 412.173H629.911C630.206 412.173 630.444 411.968 630.444 411.714V410.27C630.444 410.016 630.206 409.811 629.911 409.811H626.405C626.11 409.811 625.872 410.016 625.872 410.27V411.714C625.872 411.968 626.11 412.173 626.405 412.173Z" fill="#3F3D56"/>
<path id="Vector_29" d="M617.259 412.173H620.766C621.06 412.173 621.299 411.968 621.299 411.714V410.27C621.299 410.016 621.06 409.811 620.766 409.811H617.259C616.965 409.811 616.726 410.016 616.726 410.27V411.714C616.726 411.968 616.965 412.173 617.259 412.173Z" fill="#3F3D56"/>
<path id="Vector_30" d="M608.114 412.173H611.62C611.915 412.173 612.153 411.968 612.153 411.714V410.27C612.153 410.016 611.915 409.811 611.62 409.811H608.114C607.819 409.811 607.581 410.016 607.581 410.27V411.714C607.581 411.968 607.819 412.173 608.114 412.173Z" fill="#3F3D56"/>
<path id="Vector_31" d="M598.968 412.173H602.475C602.769 412.173 603.008 411.968 603.008 411.714V410.27C603.008 410.016 602.769 409.811 602.475 409.811H598.968C598.674 409.811 598.435 410.016 598.435 410.27V411.714C598.435 411.968 598.674 412.173 598.968 412.173Z" fill="#3F3D56"/>
<path id="Vector_32" d="M589.823 412.173H593.329C593.624 412.173 593.862 411.968 593.862 411.714V410.27C593.862 410.016 593.624 409.811 593.329 409.811H589.823C589.528 409.811 589.29 410.016 589.29 410.27V411.714C589.29 411.968 589.528 412.173 589.823 412.173Z" fill="#3F3D56"/>
<path id="Vector_33" d="M580.677 412.173H584.184C584.478 412.173 584.717 411.968 584.717 411.714V410.27C584.717 410.016 584.478 409.811 584.184 409.811H580.677C580.383 409.811 580.144 410.016 580.144 410.27V411.714C580.144 411.968 580.383 412.173 580.677 412.173Z" fill="#3F3D56"/>
<path id="Vector_34" d="M571.532 412.173H575.039C575.333 412.173 575.572 411.968 575.572 411.714V410.27C575.572 410.016 575.333 409.811 575.039 409.811H571.532C571.238 409.811 570.999 410.016 570.999 410.27V411.714C570.999 411.968 571.238 412.173 571.532 412.173Z" fill="#3F3D56"/>
<path id="Vector_35" d="M562.386 412.173H565.893C566.187 412.173 566.426 411.968 566.426 411.714V410.27C566.426 410.016 566.187 409.811 565.893 409.811H562.386C562.092 409.811 561.853 410.016 561.853 410.27V411.714C561.853 411.968 562.092 412.173 562.386 412.173Z" fill="#3F3D56"/>
<path id="Vector_36" d="M553.241 412.173H556.748C557.042 412.173 557.281 411.968 557.281 411.714V410.27C557.281 410.016 557.042 409.811 556.748 409.811H553.241C552.947 409.811 552.708 410.016 552.708 410.27V411.714C552.708 411.968 552.947 412.173 553.241 412.173Z" fill="#3F3D56"/>
<path id="Vector_37" d="M544.095 412.173H547.602C547.897 412.173 548.135 411.968 548.135 411.714V410.27C548.135 410.016 547.897 409.811 547.602 409.811H544.095C543.801 409.811 543.562 410.016 543.562 410.27V411.714C543.562 411.968 543.801 412.173 544.095 412.173Z" fill="#3F3D56"/>
<path id="Vector_38" d="M605.37 416.899H640.886C641.18 416.899 641.419 416.693 641.419 416.44V414.995C641.419 414.741 641.18 414.536 640.886 414.536H605.37C605.076 414.536 604.837 414.741 604.837 414.995V416.44C604.837 416.693 605.076 416.899 605.37 416.899Z" fill="#3F3D56"/>
<path id="Vector_39" d="M567.742 337.262H564.638C563.696 337.262 562.933 337.919 562.933 338.729C562.933 339.54 563.696 340.197 564.638 340.197H567.742C568.683 340.197 569.446 339.54 569.446 338.729C569.446 337.919 568.683 337.262 567.742 337.262Z" fill="white" fill-opacity="0.38"/>
<path id="Vector_40" d="M603.249 337.262H600.144C599.203 337.262 598.44 337.919 598.44 338.729C598.44 339.54 599.203 340.197 600.144 340.197H603.249C604.19 340.197 604.953 339.54 604.953 338.729C604.953 337.919 604.19 337.262 603.249 337.262Z" fill="white" fill-opacity="0.38"/>
<path id="Vector_41" d="M613.309 337.262H610.204C609.263 337.262 608.5 337.919 608.5 338.729C608.5 339.54 609.263 340.197 610.204 340.197H613.309C614.25 340.197 615.013 339.54 615.013 338.729C615.013 337.919 614.25 337.262 613.309 337.262Z" fill="white" fill-opacity="0.38"/>
<path id="Vector_42" d="M593.591 337.017H574.295C573.354 337.017 572.591 337.674 572.591 338.485C572.591 339.295 573.354 339.952 574.295 339.952H593.591C594.532 339.952 595.295 339.295 595.295 338.485C595.295 337.674 594.532 337.017 593.591 337.017Z" fill="white" fill-opacity="0.38"/>
<path id="Vector_43" d="M640.933 337.017H621.638C620.696 337.017 619.933 337.674 619.933 338.485C619.933 339.295 620.696 339.952 621.638 339.952H640.933C641.874 339.952 642.637 339.295 642.637 338.485C642.637 337.674 641.874 337.017 640.933 337.017Z" fill="white" fill-opacity="0.38"/>
<path id="Vector_44" d="M577.21 343.886H574.106C573.165 343.886 572.402 344.543 572.402 345.354C572.402 346.165 573.165 346.822 574.106 346.822H577.21C578.152 346.822 578.915 346.165 578.915 345.354C578.915 344.543 578.152 343.886 577.21 343.886Z" fill="white" fill-opacity="0.38"/>
<path id="Vector_45" d="M612.717 343.886H609.613C608.671 343.886 607.908 344.543 607.908 345.354C607.908 346.165 608.671 346.822 609.613 346.822H612.717C613.658 346.822 614.421 346.165 614.421 345.354C614.421 344.543 613.658 343.886 612.717 343.886Z" fill="white" fill-opacity="0.38"/>
<path id="Vector_46" d="M622.777 343.886H619.673C618.731 343.886 617.968 344.543 617.968 345.354C617.968 346.165 618.731 346.822 619.673 346.822H622.777C623.718 346.822 624.481 346.165 624.481 345.354C624.481 344.543 623.718 343.886 622.777 343.886Z" fill="white" fill-opacity="0.38"/>
<path id="Vector_47" d="M603.059 343.642H583.764C582.823 343.642 582.06 344.299 582.06 345.109C582.06 345.92 582.823 346.577 583.764 346.577H603.059C604 346.577 604.763 345.92 604.763 345.109C604.763 344.299 604 343.642 603.059 343.642Z" fill="white" fill-opacity="0.38"/>
<path id="Vector_48" d="M650.401 343.642H631.106C630.165 343.642 629.402 344.299 629.402 345.109C629.402 345.92 630.165 346.577 631.106 346.577H650.401C651.342 346.577 652.106 345.92 652.106 345.109C652.106 344.299 651.342 343.642 650.401 343.642Z" fill="white" fill-opacity="0.38"/>
<path id="Vector_49" d="M586.679 350.511H583.574C582.633 350.511 581.87 351.168 581.87 351.979C581.87 352.789 582.633 353.446 583.574 353.446H586.679C587.62 353.446 588.383 352.789 588.383 351.979C588.383 351.168 587.62 350.511 586.679 350.511Z" fill="white" fill-opacity="0.38"/>
<path id="Vector_50" d="M622.185 350.511H619.081C618.14 350.511 617.377 351.168 617.377 351.979C617.377 352.789 618.14 353.446 619.081 353.446H622.185C623.127 353.446 623.89 352.789 623.89 351.979C623.89 351.168 623.127 350.511 622.185 350.511Z" fill="white" fill-opacity="0.38"/>
<path id="Vector_51" d="M632.246 350.511H629.141C628.2 350.511 627.437 351.168 627.437 351.979C627.437 352.789 628.2 353.446 629.141 353.446H632.246C633.187 353.446 633.95 352.789 633.95 351.979C633.95 351.168 633.187 350.511 632.246 350.511Z" fill="white" fill-opacity="0.38"/>
<path id="Vector_52" d="M612.528 350.266H593.232C592.291 350.266 591.528 350.924 591.528 351.734C591.528 352.545 592.291 353.202 593.232 353.202H612.528C613.469 353.202 614.232 352.545 614.232 351.734C614.232 350.924 613.469 350.266 612.528 350.266Z" fill="white" fill-opacity="0.38"/>
<path id="Vector_53" d="M659.87 350.266H640.574C639.633 350.266 638.87 350.924 638.87 351.734C638.87 352.545 639.633 353.202 640.574 353.202H659.87C660.811 353.202 661.574 352.545 661.574 351.734C661.574 350.924 660.811 350.266 659.87 350.266Z" fill="white" fill-opacity="0.38"/>
<path id="Vector_54" d="M596.147 357.136H593.043C592.102 357.136 591.339 357.793 591.339 358.604C591.339 359.414 592.102 360.071 593.043 360.071H596.147C597.089 360.071 597.852 359.414 597.852 358.604C597.852 357.793 597.089 357.136 596.147 357.136Z" fill="white" fill-opacity="0.38"/>
<path id="Vector_55" d="M631.654 357.136H628.549C627.608 357.136 626.845 357.793 626.845 358.604C626.845 359.414 627.608 360.071 628.549 360.071H631.654C632.595 360.071 633.358 359.414 633.358 358.604C633.358 357.793 632.595 357.136 631.654 357.136Z" fill="white" fill-opacity="0.38"/>
<path id="Vector_56" d="M641.714 357.136H638.61C637.668 357.136 636.905 357.793 636.905 358.604C636.905 359.414 637.668 360.071 638.61 360.071H641.714C642.655 360.071 643.418 359.414 643.418 358.604C643.418 357.793 642.655 357.136 641.714 357.136Z" fill="white" fill-opacity="0.38"/>
<path id="Vector_57" d="M621.996 356.891H602.701C601.759 356.891 600.996 357.548 600.996 358.359C600.996 359.169 601.759 359.827 602.701 359.827H621.996C622.937 359.827 623.7 359.169 623.7 358.359C623.7 357.548 622.937 356.891 621.996 356.891Z" fill="white" fill-opacity="0.38"/>
<path id="Vector_58" d="M603.249 383.479H600.144C599.203 383.479 598.44 384.136 598.44 384.947C598.44 385.757 599.203 386.414 600.144 386.414H603.249C604.19 386.414 604.953 385.757 604.953 384.947C604.953 384.136 604.19 383.479 603.249 383.479Z" fill="white" fill-opacity="0.38"/>
<path id="Vector_59" d="M613.309 383.479H610.204C609.263 383.479 608.5 384.136 608.5 384.947C608.5 385.757 609.263 386.414 610.204 386.414H613.309C614.25 386.414 615.013 385.757 615.013 384.947C615.013 384.136 614.25 383.479 613.309 383.479Z" fill="white" fill-opacity="0.38"/>
<path id="Vector_60" d="M640.933 383.724H621.638C620.696 383.724 619.933 384.381 619.933 385.191C619.933 386.002 620.696 386.659 621.638 386.659H640.933C641.874 386.659 642.637 386.002 642.637 385.191C642.637 384.381 641.874 383.724 640.933 383.724Z" fill="white" fill-opacity="0.38"/>
<path id="Vector_61" d="M567.742 383.479H564.638C563.696 383.479 562.933 384.136 562.933 384.947C562.933 385.757 563.696 386.414 564.638 386.414H567.742C568.683 386.414 569.446 385.757 569.446 384.947C569.446 384.136 568.683 383.479 567.742 383.479Z" fill="white" fill-opacity="0.38"/>
<path id="Vector_62" d="M593.591 383.724H574.295C573.354 383.724 572.591 384.381 572.591 385.191C572.591 386.002 573.354 386.659 574.295 386.659H593.591C594.532 386.659 595.295 386.002 595.295 385.191C595.295 384.381 594.532 383.724 593.591 383.724Z" fill="white" fill-opacity="0.38"/>
<path id="Vector_63" d="M577.21 376.854H574.106C573.165 376.854 572.402 377.511 572.402 378.322C572.402 379.132 573.165 379.789 574.106 379.789H577.21C578.152 379.789 578.915 379.132 578.915 378.322C578.915 377.511 578.152 376.854 577.21 376.854Z" fill="white" fill-opacity="0.38"/>
<path id="Vector_64" d="M612.717 376.854H609.613C608.671 376.854 607.908 377.511 607.908 378.322C607.908 379.132 608.671 379.789 609.613 379.789H612.717C613.658 379.789 614.421 379.132 614.421 378.322C614.421 377.511 613.658 376.854 612.717 376.854Z" fill="white" fill-opacity="0.38"/>
<path id="Vector_65" d="M622.777 376.854H619.673C618.731 376.854 617.968 377.511 617.968 378.322C617.968 379.132 618.731 379.789 619.673 379.789H622.777C623.718 379.789 624.481 379.132 624.481 378.322C624.481 377.511 623.718 376.854 622.777 376.854Z" fill="white" fill-opacity="0.38"/>
<path id="Vector_66" d="M603.059 377.099H583.764C582.823 377.099 582.06 377.756 582.06 378.567C582.06 379.377 582.823 380.034 583.764 380.034H603.059C604 380.034 604.763 379.377 604.763 378.567C604.763 377.756 604 377.099 603.059 377.099Z" fill="white" fill-opacity="0.38"/>
<path id="Vector_67" d="M586.679 370.229H583.574C582.633 370.229 581.87 370.887 581.87 371.697C581.87 372.508 582.633 373.165 583.574 373.165H586.679C587.62 373.165 588.383 372.508 588.383 371.697C588.383 370.887 587.62 370.229 586.679 370.229Z" fill="white" fill-opacity="0.38"/>
<path id="Vector_68" d="M622.185 370.229H619.081C618.14 370.229 617.377 370.887 617.377 371.697C617.377 372.508 618.14 373.165 619.081 373.165H622.185C623.127 373.165 623.89 372.508 623.89 371.697C623.89 370.887 623.127 370.229 622.185 370.229Z" fill="white" fill-opacity="0.38"/>
<path id="Vector_69" d="M632.246 370.229H629.141C628.2 370.229 627.437 370.887 627.437 371.697C627.437 372.508 628.2 373.165 629.141 373.165H632.246C633.187 373.165 633.95 372.508 633.95 371.697C633.95 370.887 633.187 370.229 632.246 370.229Z" fill="white" fill-opacity="0.38"/>
<path id="Vector_70" d="M612.528 370.474H593.232C592.291 370.474 591.528 371.131 591.528 371.942C591.528 372.752 592.291 373.409 593.232 373.409H612.528C613.469 373.409 614.232 372.752 614.232 371.942C614.232 371.131 613.469 370.474 612.528 370.474Z" fill="white" fill-opacity="0.38"/>
<path id="Vector_71" d="M596.147 363.605H593.043C592.102 363.605 591.339 364.262 591.339 365.072C591.339 365.883 592.102 366.54 593.043 366.54H596.147C597.089 366.54 597.852 365.883 597.852 365.072C597.852 364.262 597.089 363.605 596.147 363.605Z" fill="white" fill-opacity="0.38"/>
<path id="Vector_72" d="M631.654 363.605H628.549C627.608 363.605 626.845 364.262 626.845 365.072C626.845 365.883 627.608 366.54 628.549 366.54H631.654C632.595 366.54 633.358 365.883 633.358 365.072C633.358 364.262 632.595 363.605 631.654 363.605Z" fill="white" fill-opacity="0.38"/>
<path id="Vector_73" d="M621.996 363.849H602.701C601.759 363.849 600.996 364.506 600.996 365.317C600.996 366.127 601.759 366.785 602.701 366.785H621.996C622.937 366.785 623.7 366.127 623.7 365.317C623.7 364.506 622.937 363.849 621.996 363.849Z" fill="white" fill-opacity="0.38"/>
<g id="head">
<g id="hand">
<path id="Vector_74" d="M551.237 461.119L536.662 441.281L582.408 409.878L601.29 391.864C603.743 389.523 606.867 387.778 610.348 386.803C613.83 385.828 617.548 385.657 621.13 386.307C624.713 386.956 628.035 388.404 630.764 390.506C633.493 392.608 635.534 395.289 636.682 398.283C638.384 402.719 638.018 407.551 635.661 411.759C633.305 415.967 629.142 419.223 624.051 420.838L594.193 430.31L551.237 461.119Z" fill="#FFB6B6"/>
</g>
</g>
<path id="Vector_75" d="M209.275 317.278V413.698H287.716V317.278C287.718 316.584 287.461 315.909 286.983 315.35C286.506 314.792 285.833 314.38 285.063 314.175C284.701 314.072 284.321 314.021 283.939 314.025H213.063C212.566 314.024 212.074 314.108 211.615 314.271C211.156 314.434 210.738 314.673 210.386 314.975C210.034 315.277 209.755 315.636 209.564 316.031C209.374 316.426 209.275 316.85 209.275 317.278ZM239.887 350.408C239.908 348.507 240.799 346.69 242.367 345.352C243.935 344.015 246.053 343.264 248.261 343.264C250.468 343.264 252.586 344.015 254.155 345.352C255.723 346.69 256.614 348.507 256.634 350.408V361.596C256.623 363.502 255.736 365.327 254.167 366.671C252.598 368.015 250.474 368.77 248.261 368.77C246.047 368.77 243.924 368.015 242.355 366.671C240.786 365.327 239.899 363.502 239.887 361.596V350.408Z" fill="#2F2E41"/>
<path id="Vector_76" d="M209.035 410.615V419.912C209.037 420.394 209.259 420.856 209.653 421.197C210.048 421.539 210.583 421.732 211.142 421.736H285.849C286.409 421.734 286.945 421.541 287.34 421.199C287.735 420.857 287.957 420.395 287.956 419.912V410.615H209.035Z" fill="#3F3D56"/>
<path id="Vector_77" d="M85.8759 172.008V348.058C85.878 350.301 86.9139 352.452 88.7561 354.039C90.5983 355.625 93.0963 356.517 95.7016 356.519H398.658C401.264 356.517 403.762 355.625 405.604 354.039C407.446 352.452 408.482 350.301 408.484 348.058V172.008C408.478 169.767 407.44 167.618 405.599 166.034C403.757 164.45 401.261 163.559 398.658 163.556H95.7016C93.0986 163.559 90.6029 164.45 88.7613 166.034C86.9197 167.618 85.8822 169.767 85.8759 172.008Z" fill="#3F3D56"/>
<path id="Vector_78" d="M92.9832 174.199V345.886C92.9856 347.085 93.5396 348.234 94.5238 349.081C95.5081 349.929 96.8424 350.406 98.2344 350.408H396.137C397.529 350.406 398.863 349.929 399.847 349.081C400.831 348.234 401.385 347.085 401.388 345.886V174.199C401.388 172.998 400.835 171.847 399.85 170.998C398.866 170.148 397.53 169.67 396.137 169.667H98.2344C96.8407 169.67 95.5052 170.148 94.5207 170.998C93.5363 171.847 92.9833 172.998 92.9832 174.199Z" fill="white"/>
<path id="Vector_79" d="M148.269 421.106C148.572 421.434 148.957 421.698 149.396 421.878C149.835 422.059 150.315 422.152 150.802 422.15H328.034C328.519 422.149 328.997 422.056 329.435 421.876C329.872 421.696 330.257 421.435 330.563 421.111C330.868 420.786 331.086 420.408 331.2 420.002C331.314 419.596 331.321 419.174 331.222 418.765L328.471 407.512C328.357 407.053 328.111 406.626 327.757 406.27C327.402 405.913 326.949 405.639 326.44 405.472C326.071 405.347 325.679 405.284 325.283 405.284H153.542C153.146 405.284 152.753 405.347 152.385 405.472C151.875 405.639 151.423 405.913 151.068 406.27C150.713 406.626 150.468 407.053 150.354 407.512L147.603 418.765C147.505 419.174 147.514 419.596 147.629 420.001C147.744 420.405 147.963 420.783 148.269 421.106Z" fill="#2F2E41"/>
<path id="Vector_80" d="M386.469 193.318H107.723C107.433 193.312 107.157 193.209 106.955 193.031C106.752 192.852 106.639 192.613 106.639 192.363C106.639 192.114 106.752 191.874 106.955 191.696C107.157 191.517 107.433 191.414 107.723 191.409H386.469C386.758 191.414 387.034 191.517 387.237 191.696C387.439 191.874 387.553 192.114 387.553 192.363C387.553 192.613 387.439 192.852 387.237 193.031C387.034 193.209 386.758 193.312 386.469 193.318Z" fill="#3F3D56"/>
<path id="Vector_81" d="M126.697 186.535C130.285 186.535 133.194 183.974 133.194 180.816C133.194 177.658 130.285 175.097 126.697 175.097C123.11 175.097 120.201 177.658 120.201 180.816C120.201 183.974 123.11 186.535 126.697 186.535Z" fill="#3F3D56"/>
<path id="Vector_82" d="M149.139 186.535C152.727 186.535 155.635 183.974 155.635 180.816C155.635 177.658 152.727 175.097 149.139 175.097C145.551 175.097 142.643 177.658 142.643 180.816C142.643 183.974 145.551 186.535 149.139 186.535Z" fill="#3F3D56"/>
<path id="Vector_83" d="M171.581 186.535C175.169 186.535 178.077 183.974 178.077 180.816C178.077 177.658 175.169 175.097 171.581 175.097C167.993 175.097 165.085 177.658 165.085 180.816C165.085 183.974 167.993 186.535 171.581 186.535Z" fill="#3F3D56"/>
<path id="Vector_84" d="M372.955 176.511H357.016C356.701 176.518 356.401 176.63 356.181 176.824C355.96 177.018 355.837 177.279 355.837 177.55C355.837 177.822 355.96 178.082 356.181 178.276C356.401 178.47 356.701 178.583 357.016 178.589H372.955C373.272 178.585 373.575 178.474 373.797 178.28C374.02 178.085 374.145 177.823 374.145 177.55C374.145 177.277 374.02 177.015 373.797 176.821C373.575 176.626 373.272 176.515 372.955 176.511Z" fill="#3F3D56"/>
<path id="Vector_85" d="M372.955 180.413H357.016C356.7 180.419 356.4 180.531 356.18 180.725C355.959 180.919 355.836 181.18 355.836 181.452C355.836 181.723 355.959 181.984 356.18 182.178C356.4 182.373 356.7 182.485 357.016 182.491H372.955C373.272 182.487 373.576 182.376 373.799 182.182C374.022 181.987 374.147 181.725 374.147 181.452C374.147 181.178 374.022 180.916 373.799 180.722C373.576 180.527 373.272 180.416 372.955 180.413Z" fill="#3F3D56"/>
<path id="Vector_86" d="M372.955 184.314H357.016C356.701 184.321 356.401 184.433 356.181 184.627C355.96 184.821 355.837 185.082 355.837 185.353C355.837 185.625 355.96 185.885 356.181 186.079C356.401 186.274 356.701 186.386 357.016 186.392H372.955C373.272 186.388 373.575 186.277 373.797 186.083C374.02 185.888 374.145 185.626 374.145 185.353C374.145 185.08 374.02 184.818 373.797 184.624C373.575 184.429 373.272 184.318 372.955 184.314Z" fill="#3F3D56"/>
<path id="Vector_87" d="M757.224 414.695C757.705 415.901 758.617 416.945 759.83 417.676C761.043 418.408 762.494 418.79 763.974 418.767L792.896 418.126C794.387 418.101 795.829 417.661 797.006 416.872C798.183 416.083 799.032 414.987 799.426 413.748L803.518 376.06C804.971 376.627 806.551 376.906 808.145 376.879C809.53 376.849 810.894 376.585 812.16 376.101C813.426 375.617 814.569 374.923 815.524 374.058C816.478 373.194 817.226 372.176 817.723 371.063C818.221 369.95 818.46 368.763 818.425 367.571C818.39 366.378 818.083 365.204 817.521 364.113C816.959 363.023 816.153 362.039 815.149 361.217C814.146 360.395 812.964 359.751 811.671 359.323C810.378 358.894 809 358.689 807.616 358.719C806.979 358.717 806.343 358.774 805.72 358.888C805.043 358.257 804.219 357.755 803.303 357.415C802.386 357.074 801.397 356.903 800.399 356.911L755.91 357.901C755.541 357.912 755.174 357.952 754.813 358.018C753.837 358.175 752.912 358.509 752.099 359C751.286 359.49 750.605 360.125 750.101 360.861C749.597 361.597 749.282 362.418 749.177 363.268C749.072 364.118 749.18 364.977 749.493 365.788L757.224 414.695ZM804.358 373.501L807.27 364.52C807.601 363.483 807.609 362.389 807.292 361.348C807.434 361.348 807.558 361.29 807.7 361.29C809.697 361.254 811.628 361.902 813.071 363.091C814.515 364.28 815.351 365.913 815.398 367.633C815.445 369.352 814.698 371.018 813.321 372.264C811.944 373.51 810.05 374.235 808.053 374.28C806.762 374.314 805.484 374.045 804.358 373.501Z" fill="#2F2E41"/>
<path id="Vector_88" d="M754.813 358.018C755.761 362.685 766.417 365.966 779.231 365.395C791.013 364.928 800.648 361.365 802.413 357.142C801.759 356.976 801.08 356.898 800.399 356.911L755.91 357.901C755.541 357.912 755.174 357.952 754.813 358.018Z" fill="#3F3D56"/>
<path id="Vector_89" d="M781.579 393.986C781.637 393.973 781.693 393.952 781.744 393.923L788.025 390.383C788.101 390.34 788.163 390.282 788.206 390.213C788.249 390.145 788.272 390.068 788.272 389.99C788.272 389.912 788.249 389.835 788.206 389.766C788.163 389.698 788.101 389.639 788.025 389.597L781.497 385.915C781.437 385.88 781.37 385.857 781.299 385.845C781.228 385.833 781.156 385.834 781.086 385.846C781.015 385.859 780.948 385.883 780.889 385.918C780.829 385.952 780.779 385.997 780.739 386.049C780.7 386.1 780.673 386.158 780.659 386.219C780.646 386.28 780.647 386.342 780.662 386.403C780.676 386.464 780.705 386.521 780.746 386.572C780.786 386.623 780.838 386.667 780.898 386.7L786.729 389.989L781.146 393.137C781.038 393.197 780.959 393.289 780.922 393.396C780.885 393.503 780.893 393.617 780.945 393.719C780.997 393.821 781.089 393.903 781.205 393.952C781.321 394.001 781.454 394.013 781.579 393.986H781.579Z" fill="#6C63FF"/>
<path id="Vector_90" d="M771.659 394.38C771.764 394.357 771.859 394.307 771.931 394.237C772.004 394.167 772.051 394.081 772.065 393.988C772.08 393.895 772.062 393.801 772.014 393.717C771.967 393.632 771.891 393.563 771.796 393.516L766.007 390.658L771.602 387.078C771.66 387.042 771.708 386.995 771.745 386.943C771.782 386.89 771.806 386.831 771.817 386.77C771.827 386.709 771.824 386.647 771.806 386.587C771.789 386.527 771.758 386.471 771.715 386.421C771.672 386.372 771.619 386.33 771.557 386.298C771.496 386.267 771.428 386.246 771.357 386.237C771.286 386.228 771.214 386.231 771.144 386.246C771.075 386.261 771.009 386.288 770.952 386.324L764.687 390.332C764.614 390.378 764.556 390.44 764.517 390.51C764.479 390.581 764.462 390.659 764.467 390.737C764.472 390.815 764.5 390.89 764.548 390.956C764.596 391.023 764.662 391.078 764.74 391.117L771.253 394.332C771.376 394.392 771.521 394.41 771.659 394.38Z" fill="#6C63FF"/>
<path id="Vector_91" d="M780.954 397.088C781.007 397.077 781.057 397.058 781.104 397.034C781.165 397.002 781.218 396.959 781.261 396.91C781.303 396.86 781.334 396.803 781.351 396.743C781.368 396.683 781.371 396.621 781.36 396.56C781.349 396.499 781.324 396.44 781.287 396.388L772.383 383.782C772.307 383.676 772.186 383.599 772.045 383.57C771.905 383.541 771.756 383.561 771.633 383.626C771.509 383.691 771.421 383.795 771.386 383.916C771.352 384.037 771.375 384.165 771.45 384.271L780.354 396.877C780.415 396.963 780.506 397.03 780.614 397.068C780.722 397.105 780.841 397.113 780.954 397.088Z" fill="#6C63FF"/>
<path id="Vector_92" d="M280.401 245.213H232.156C230.188 245.213 228.593 246.587 228.593 248.282V252.341C228.593 254.035 230.188 255.409 232.156 255.409H280.401C282.369 255.409 283.965 254.035 283.965 252.341V248.282C283.965 246.587 282.369 245.213 280.401 245.213Z" fill="#6C63FF"/>
<g id="code">
<path id="Vector_93" d="M308.523 265.606H204.035C202.067 265.606 200.471 266.98 200.471 268.675V272.733C200.471 274.428 202.067 275.802 204.035 275.802H308.523C310.491 275.802 312.086 274.428 312.086 272.733V268.675C312.086 266.98 310.491 265.606 308.523 265.606Z" fill="#E6E6E6"/>
</g>
<path id="Vector_94" d="M308.523 285.999H204.035C202.067 285.999 200.471 287.373 200.471 289.067V293.126C200.471 294.821 202.067 296.195 204.035 296.195H308.523C310.491 296.195 312.086 294.821 312.086 293.126V289.067C312.086 287.373 310.491 285.999 308.523 285.999Z" fill="#E6E6E6"/>
<g id="body">
<g id="Group 2">
<path id="Vector_95" d="M317.38 354.286L317.617 354.93L317.629 354.951L324.753 373.602L332.948 395.094L348.366 435.484L348.515 441.757V441.779L349.661 492.25L346.485 499.092L350.06 510.31C350.06 510.31 348.416 493.353 339.598 503.091C334.604 508.625 328.763 514.288 323.968 519.596C330.955 522.031 338.054 524.233 345.265 526.203C346.822 526.632 348.391 527.039 349.96 527.447C350.296 527.533 350.633 527.618 350.969 527.704C374.872 533.792 399.584 537.212 424.498 537.882C425.793 537.914 427.064 537.936 428.297 537.957C428.733 537.968 429.156 537.979 429.58 537.979C430.974 537.989 432.357 538 433.752 538C436.566 538 439.369 537.964 442.158 537.893C462.807 537.392 483.334 535.001 503.395 530.761C503.258 523.629 502.885 515.296 502.349 506.394C502.1 502.029 496.508 497.3 496.172 492.731C495.935 489.299 500.954 486.071 500.693 482.585C498.999 461.125 496.882 469.363 495.313 454.166C495.151 452.675 495.001 451.249 494.864 449.887C493.856 440.127 493.158 434.025 493.158 434.025L499.858 397.657L510.382 340.559L509.573 339.411L508.664 339.025L453.155 315.366L450.141 308.717C449.263 306.801 447.74 305.156 445.767 303.992C443.794 302.828 441.461 302.199 439.07 302.185L402.504 302.057C400.607 302.049 398.734 302.432 397.043 303.172C395.351 303.913 393.889 304.99 392.777 306.314L382.876 318.122L317.38 354.286Z" fill="#3F3D56"/>
</g>
</g>
<g id="hand_2">
<path id="Vector_96" d="M356.798 426.496L348.515 441.757L342.861 452.182L333.135 496.035L328.265 500.486L324.093 484.73L280.426 493.079C278.994 486.226 280.042 493.311 279.158 485.793C279.407 485.579 279.669 485.364 279.93 485.15C280.628 484.592 281.213 484.067 281.201 483.563C280.702 457.63 282.197 413.498 294.676 386.761C296.631 382.395 299.208 378.256 302.348 374.438C302.597 374.149 302.834 373.859 303.07 373.569C308.824 366.63 312.461 359.799 317.617 354.941V354.93C317.649 354.908 317.678 354.882 317.704 354.855C317.723 354.847 317.739 354.836 317.754 354.822L353.173 338.65L354.693 375.414L355.776 401.84L356.798 426.496Z" fill="#3F3D56"/>
</g>
<g id="hand_3">
<path id="Vector_97" d="M484.514 430.831L494.859 449.892L498.47 456.53L508.194 500.38L513.048 504.82L517.23 489.067L519.194 488.72L554.631 482.4L564.959 510.648C567.287 507.308 568.204 503.378 567.555 499.523C566.907 495.667 564.732 492.123 561.399 489.49C560.693 488.94 560.106 488.405 560.122 487.899C560.71 457.398 558.544 401.704 538.978 378.781C532.764 371.507 529.036 364.261 523.611 359.199C523.595 359.185 523.595 359.17 523.578 359.17L510.377 340.557L509.571 339.415L508.664 339.024L484.514 430.831Z" fill="#3F3D56"/>
</g>
<g id="Group 3">
<path id="Ellipse 5" d="M421.843 293.096C448.71 293.096 470.489 274.34 470.489 251.205C470.489 228.069 448.71 209.314 421.843 209.314C394.977 209.314 373.197 228.069 373.197 251.205C373.197 274.34 394.977 293.096 421.843 293.096Z" fill="#FFB6B6"/>
</g>
<g id="head_2">
<path id="Vector_98" d="M487.998 221.505C487.616 221.159 487.156 220.881 486.645 220.689C486.134 220.497 485.582 220.394 485.024 220.387L485.764 218.64C486.006 218.09 486.071 217.494 485.953 216.915C485.836 216.337 485.539 215.795 485.093 215.345C484.648 214.896 484.069 214.556 483.418 214.359C482.767 214.162 482.065 214.115 481.386 214.224L478.688 214.666L478.942 213.135C479.04 212.564 478.961 211.982 478.713 211.446C478.466 210.909 478.058 210.436 477.531 210.074C477.003 209.712 476.373 209.473 475.704 209.38C475.034 209.288 474.348 209.345 473.712 209.546C473.134 209.739 472.512 209.82 471.892 209.783C471.272 209.745 470.67 209.591 470.13 209.33C469.587 209.077 469.116 208.726 468.75 208.303C468.383 207.879 468.13 207.393 468.007 206.878L467.067 203.026L466.968 202.819C462.39 196.337 453.589 191.621 442.819 189.892C433.233 188.342 423.404 189.131 413.928 189.873C410.168 190.174 405.923 190.512 402.384 192.353C399.377 193.932 396.834 197.088 397.354 200.273C388.01 197.84 377.993 202.697 373.028 208.822C367.146 216.113 366.184 225.244 366.029 232.384C365.609 249.276 369.711 263.096 378.192 273.467C378.811 274.219 378.966 275.788 380.193 276.314L379.939 275.966C381.31 276.549 382.703 277.488 382.183 278.494C380.691 281.387 390.609 287.785 397.597 289.899C410.345 293.76 427.296 293.431 439.215 292.041L439.635 289.645C443.936 289.147 446.966 288.198 447.817 286.714C449.321 285.624 450.603 284.647 451.72 283.745L451.731 283.736C451.753 283.717 451.798 283.689 451.82 283.67C457.204 279.283 458.454 276.784 459.018 272.979C459.56 269.249 458.598 265.463 457.614 262.053C478.334 264.777 449.454 243.301 468.759 239.149C468.98 239.091 469.206 239.044 469.433 239.008C469.997 238.895 470.561 238.782 471.103 238.651C473.715 238.048 476.215 237.141 478.533 235.954C483.929 233.164 485.709 229.463 488.495 225.291C488.898 224.697 489.066 224.01 488.977 223.329C488.887 222.648 488.544 222.009 487.998 221.505Z" fill="#2F2E41"/>
</g>
<g id="chair">
<path id="Vector_99" d="M591.326 425.428C591.315 427.073 591.294 429.376 591.206 432.225C591.195 432.62 591.184 433.024 591.173 433.438C591.032 438.674 590.89 443.065 590.66 447.944C590.649 448.282 590.639 448.611 590.617 448.95C590.311 455.756 589.831 463.682 589.001 476.233C587.462 499.416 584.776 479.42 582.079 487.552C581.948 487.956 581.806 488.436 581.675 489C581.267 491.046 580.578 493.044 579.623 494.951C578.193 495.684 576.719 496.389 575.267 497.094C571.129 499.078 566.926 500.986 562.69 502.801C560.31 503.816 557.919 504.813 555.517 505.772C555.135 505.922 554.764 506.073 554.393 506.214C542.094 511.113 529.418 515.278 516.455 518.68C513.922 519.338 511.4 519.977 508.846 520.569C506.182 521.209 503.518 521.81 500.821 522.375C480.761 526.615 460.234 529.007 439.586 529.51C436.802 529.585 433.996 529.614 431.18 529.614C429.782 529.614 428.407 529.604 427.009 529.595C426.583 529.595 426.158 529.585 425.732 529.576C424.498 529.548 423.221 529.529 421.933 529.501C397.018 528.832 372.306 525.41 348.404 519.319L347.389 519.065C345.817 518.652 344.256 518.247 342.694 517.815C335.489 515.85 328.389 513.65 321.395 511.215C316.056 509.363 310.779 507.376 305.564 505.255C305.517 505.244 305.472 505.224 305.433 505.198C304.342 504.766 303.239 504.314 302.147 503.854C302.005 503.788 301.852 503.722 301.7 503.656C297.627 501.945 293.599 500.153 289.614 498.279C286.262 491.651 281.546 490.382 278.62 484.553C277.769 482.821 277.153 481.01 276.786 479.156C276.786 479.138 276.775 479.119 276.775 479.091C277.081 482.588 275.476 472.886 276.764 479.053C276.753 478.94 276.743 478.818 276.732 478.677C276.699 478.339 276.655 477.925 276.59 477.408C272.845 445.923 273.085 409.915 271.459 380.245C271.349 378.327 271.237 376.49 271.12 374.736C271.087 374.153 271.044 373.579 271 373.015C271.076 372.846 271.164 372.667 271.262 372.498C271.283 372.449 271.308 372.402 271.338 372.357C271.371 372.299 271.407 372.242 271.448 372.188C271.469 372.16 271.502 372.122 271.524 372.094C271.54 372.061 271.558 372.03 271.579 372C271.677 371.868 271.786 371.727 271.906 371.596C271.961 371.539 272.004 371.492 272.059 371.445C272.097 371.397 272.141 371.353 272.19 371.313C272.223 371.268 272.264 371.227 272.31 371.191C272.354 371.154 272.397 371.107 272.452 371.06C272.475 371.03 272.505 371.005 272.539 370.984C272.626 370.899 272.721 370.82 272.823 370.749C273.213 370.441 273.629 370.158 274.068 369.903C274.221 369.819 274.384 369.734 274.537 369.64C275.637 369.073 276.796 368.595 277.998 368.211C278.413 368.079 278.828 367.957 279.275 367.826C279.439 367.788 279.592 367.741 279.756 367.694C279.996 367.628 280.236 367.562 280.487 367.515C281.732 367.196 283.075 366.923 284.527 366.669C284.701 366.641 284.887 366.613 285.072 366.575C285.334 366.528 285.607 366.491 285.88 366.453C286.252 366.397 286.634 366.34 287.016 366.284C290.258 365.842 293.937 365.513 297.999 365.297C298.381 365.278 298.763 365.259 299.145 365.24C299.593 365.221 300.04 365.203 300.499 365.184C300.881 365.165 301.274 365.156 301.667 365.146C302.049 365.127 302.442 365.118 302.846 365.109C303.949 365.08 305.084 365.052 306.241 365.033C309.538 364.977 313.01 364.996 316.656 365.062C318.349 365.099 320.074 365.137 321.842 365.203C321.962 365.203 322.071 365.212 322.181 365.212C323.72 365.259 325.27 365.315 326.864 365.391C327.978 365.438 329.102 365.485 330.227 365.541C331.286 365.598 332.356 365.654 333.436 365.72C334.277 365.757 335.118 365.814 335.969 365.861C336.69 365.908 337.41 365.955 338.131 365.992L339.113 366.049C339.648 366.086 340.183 366.115 340.729 366.162C341.93 366.246 343.131 366.331 344.354 366.415C345.566 366.509 346.799 366.603 348.033 366.697C349.267 366.791 350.511 366.895 351.756 366.998C351.887 367.008 352.007 367.017 352.127 367.026C353.262 367.13 354.398 367.224 355.544 367.327C355.806 367.346 356.079 367.365 356.341 367.393C357.434 367.488 358.548 367.598 359.651 367.699C359.99 367.731 360.326 367.761 360.666 367.793C361.53 367.874 362.382 367.944 363.252 368.032C364.398 368.145 365.566 368.249 366.701 368.38C367.586 368.465 368.47 368.55 369.354 368.644C370.741 368.785 372.149 368.935 373.558 369.095C374.093 369.151 374.627 369.208 375.162 369.273C379.18 369.706 383.241 370.185 387.368 370.684C393.624 371.445 399.978 372.272 406.375 373.166C412.784 374.059 419.229 375.002 425.71 375.995C427.347 376.249 428.985 376.503 430.634 376.766C431.376 376.888 432.118 377.011 432.861 377.133C434.127 377.33 435.393 377.537 436.66 377.744C437.926 377.951 439.193 378.158 440.459 378.374C441.966 378.628 443.483 378.882 444.99 379.135C454.914 380.828 464.783 382.633 474.412 384.522C475.995 384.833 477.578 385.152 479.15 385.463C482.295 386.092 485.41 386.732 488.496 387.38C489.347 387.55 490.188 387.728 491.028 387.907C493.125 388.358 495.221 388.809 497.284 389.27L497.644 389.355C499.162 389.674 500.647 390.003 502.131 390.342C505.636 391.132 509.082 391.931 512.47 392.739C514.719 393.275 516.943 393.817 519.141 394.366C522.427 395.184 525.647 396.011 528.781 396.848C529.556 397.054 530.331 397.261 531.095 397.459C533.388 398.07 535.648 398.69 537.842 399.311C539.589 399.8 541.292 400.298 542.973 400.796C544.654 401.294 546.303 401.793 547.919 402.291C548.956 402.611 549.982 402.949 551.008 403.269C552.482 403.739 553.934 404.209 555.354 404.679C555.79 404.82 556.216 404.97 556.642 405.111C556.915 405.215 557.177 405.299 557.439 405.393C557.952 405.572 558.476 405.741 558.978 405.92C559.491 406.089 559.993 406.268 560.496 406.456C560.987 406.625 561.489 406.804 561.969 406.982C562.461 407.151 562.941 407.33 563.421 407.518C563.825 407.659 564.218 407.81 564.6 407.96C565.376 408.251 566.151 408.543 566.904 408.844C567.275 408.994 567.646 409.135 568.018 409.286L568.869 409.624C568.989 409.68 569.109 409.727 569.229 409.774C569.502 409.887 569.786 410.009 570.059 410.122C570.692 410.376 571.315 410.649 571.926 410.903C572.745 411.26 573.542 411.617 574.306 411.965C575.081 412.322 575.834 412.679 576.555 413.027C576.675 413.084 576.784 413.14 576.904 413.197C577.068 413.272 577.232 413.356 577.396 413.432C577.952 413.704 578.487 413.986 579.022 414.259C580.07 414.814 581.064 415.359 581.992 415.904C582.199 416.026 582.396 416.148 582.603 416.261C583.291 416.684 583.946 417.098 584.557 417.521C584.557 417.53 584.557 417.53 584.568 417.53C584.776 417.662 584.972 417.803 585.169 417.935C585.333 418.066 585.507 418.179 585.671 418.311C586.239 418.734 586.763 419.138 587.243 419.552C587.404 419.679 587.557 419.814 587.702 419.956C587.765 420.001 587.824 420.052 587.876 420.106C588.095 420.294 588.291 420.482 588.477 420.671C588.506 420.696 588.531 420.725 588.553 420.755C588.815 421.018 589.055 421.282 589.285 421.545C589.394 421.677 589.514 421.808 589.612 421.94C589.743 422.1 589.874 422.269 589.983 422.429C590.082 422.56 590.169 422.701 590.256 422.833C590.488 423.172 590.685 423.527 590.846 423.895C590.969 424.145 591.067 424.403 591.141 424.666C591.223 424.916 591.285 425.17 591.326 425.428Z" fill="#2F2E41"/>
</g>
</g>
<rect x="0.5" y="0.5" width="858" height="537" stroke="black"/>
<rect x="0.5" y="0.5" width="858" height="537" stroke="black" stroke-opacity="0.2"/>
</g>
<defs>
<clipPath id="clip0_1_2">
<rect width="859" height="538" fill="white"/>
</clipPath>
</defs>
</svg>
